<svg width="6" height="33" viewBox="0 0 6 33" fill="none" xmlns="http://www.w3.org/2000/svg">
<path d="M3.27601 26.5462H2.424C2.424 26.5462 2.24976 28.4403 1.72397 29.3657C1.72397 29.3657 3.14782 31.5685 2.95056 32.0972" fill="#00020B"/>
<path d="M2.98663 32.1103L2.91448 32.0833C3.06493 31.6796 2.18068 30.1429 1.69173 29.3865L1.67868 29.3664L1.69019 29.3464C2.20601 28.4395 2.38332 26.5616 2.38562 26.5423L2.38869 26.5076H3.27524V26.5848H2.45931C2.43244 26.8464 2.24515 28.5059 1.76925 29.3641C1.9197 29.5988 3.18083 31.5908 2.98663 32.1103Z" fill="#00020B"/>
<path d="M2.67426 26.5462H3.52627C3.52627 26.5462 3.70051 28.4402 4.2263 29.3657C4.2263 29.3657 2.80244 31.5684 2.99971 32.0971" fill="#00020B"/>
<path d="M2.96363 32.1103C2.7702 31.5908 4.03057 29.5988 4.18101 29.3641C3.70511 28.5059 3.51782 26.8464 3.49096 26.5848H2.67426V26.5076H3.56081L3.56388 26.5423C3.56541 26.5609 3.74349 28.4387 4.2593 29.3464L4.27082 29.3664L4.25777 29.3865C3.76882 30.1429 2.88457 31.6796 3.03502 32.0833L2.96363 32.1103Z" fill="#00020B"/>
<path d="M1.70789 11.3242V15.4619C1.70789 15.4619 1.70789 15.4697 1.70789 15.4843C1.71326 15.9466 1.8046 23.4287 2.27743 26.0151H3.67288C4.14648 23.4287 4.23782 15.9466 4.24243 15.4843C4.24319 15.4697 4.24319 15.4619 4.24319 15.4619V11.3242H1.70789ZM3.61455 15.4619L3.60687 15.4843L3.59613 15.5137C3.59613 15.5137 3.60303 23.0683 2.97362 25.3598C2.35035 23.2041 2.33576 15.9428 2.33576 15.4843C2.33576 15.4697 2.33576 15.4619 2.33576 15.4619V11.3612H3.61455V15.4619Z" fill="#00020B" stroke="#00020B" stroke-miterlimit="10"/>
<path d="M2.97437 25.5019L2.93675 25.3715C2.30504 23.1849 2.29736 15.7985 2.29736 15.4851V11.3227H3.6529L3.6506 15.4743L3.63448 15.5206C3.63448 15.7877 3.62604 23.1301 3.01044 25.3699L2.97437 25.5019ZM2.37412 11.3999V15.4844C2.37412 15.7908 2.38103 22.8754 2.97283 25.2094C3.55772 22.7951 3.55772 15.5878 3.55772 15.5137L3.56003 15.5006L3.57615 15.4558V11.3999H2.37412Z" fill="#00020B"/>
<path d="M3.01352 29.3217H2.93677V31.9582H3.01352V29.3217Z" fill="#00020B"/>
<path d="M2.97515 29.5339C3.09173 29.5339 3.18624 29.4389 3.18624 29.3217C3.18624 29.2044 3.09173 29.1094 2.97515 29.1094C2.85857 29.1094 2.76407 29.2044 2.76407 29.3217C2.76407 29.4389 2.85857 29.5339 2.97515 29.5339Z" fill="white"/>
<path d="M2.97514 29.5725C2.83774 29.5725 2.72568 29.4598 2.72568 29.3217C2.72568 29.1835 2.83774 29.0708 2.97514 29.0708C3.11254 29.0708 3.2246 29.1835 3.2246 29.3217C3.2246 29.4598 3.11254 29.5725 2.97514 29.5725ZM2.97514 29.1472C2.87996 29.1472 2.80244 29.2252 2.80244 29.3209C2.80244 29.4166 2.87996 29.4946 2.97514 29.4946C3.07032 29.4946 3.14785 29.4166 3.14785 29.3209C3.14785 29.2252 3.07032 29.1472 2.97514 29.1472Z" fill="#00020B"/>
<path d="M5.96026 1.96583V11.6353C5.96026 11.7395 5.87659 11.8244 5.77297 11.8244H5.41067C5.30705 11.8244 5.22261 11.7395 5.22261 11.6353V2.73303H4.56403C4.56327 2.72608 4.5625 2.71682 4.56173 2.70602C4.63004 3.61137 4.60395 4.39863 4.60395 4.39863V11.2C4.60395 11.2717 4.54561 11.3304 4.47346 11.3304H1.53671C1.46532 11.3304 1.40699 11.2717 1.40699 11.2V4.39863C1.40699 4.39863 1.26115 -0.0532608 2.57294 0.0401301L3.00508 0.0393583L3.43723 0.0401301C4.04976 -0.00309213 4.34527 0.943938 4.48497 1.96583H5.96026Z" fill="#00020B"/>
<path d="M5.77296 11.8629H5.41066C5.28555 11.8629 5.18423 11.7611 5.18423 11.6353V2.77161H4.60471C4.66611 3.63991 4.64232 4.39244 4.64232 4.40016V11.1999C4.64232 11.2933 4.56633 11.369 4.47345 11.369H1.5367C1.44382 11.369 1.3686 11.2933 1.3686 11.1999V4.39862C1.3686 4.39167 1.34173 3.54267 1.41849 2.60644C1.52135 1.34219 1.75316 0.527915 2.10778 0.184452C2.24594 0.0509266 2.40329 -0.0108195 2.576 0.00152973L3.00507 0.000757909L3.43722 0.00152973C3.97069 -0.0347461 4.33375 0.612044 4.51797 1.92723H5.99786V11.6353C5.99863 11.7611 5.89731 11.8629 5.77296 11.8629ZM4.56402 2.69443H5.26099V11.6353C5.26099 11.7186 5.32853 11.7858 5.41066 11.7858H5.77296C5.85509 11.7858 5.92187 11.7178 5.92187 11.6353V2.00442H4.45119L4.44659 1.97123C4.32531 1.08363 4.05282 0.0370337 3.43952 0.0787123L3.00431 0.0779405L2.57216 0.0787123C2.41711 0.0679067 2.28278 0.120391 2.15997 0.240024C1.34404 1.0296 1.44382 4.36389 1.44459 4.39708V11.1999C1.44459 11.2509 1.48527 11.2918 1.53593 11.2918H4.47268C4.52334 11.2918 4.56479 11.2509 4.56479 11.1999V4.39862C4.56479 4.38936 4.59012 3.60904 4.52334 2.72144C4.52334 2.71758 4.52258 2.71372 4.52258 2.70909L4.56326 2.70601V2.69443H4.56402Z" fill="#00020B"/>
<path d="M2.99358 25.4301L2.91989 25.4092L2.93678 25.3498L3.012 25.0696V25.3598L2.99204 25.3652L3.01047 25.3699L2.99358 25.4301Z" fill="#00020B"/>
<path d="M4.2432 15.5229H4.24243V15.4457L4.2432 15.5229Z" fill="#00020B"/>
<path d="M2.33576 15.4457H1.70865V15.5229H2.33576V15.4457Z" fill="#00020B"/>
<path d="M4.2424 15.4457H3.60684V15.5229H4.2424V15.4457Z" fill="#00020B"/>
<path d="M0.98864 18.9653L1.5766 21.5316L1.70479 22.2455L1.83374 21.5463L2.33727 18.9653H3.31977L3.8494 21.5308L3.9845 22.2455L4.12266 21.5586L4.71676 18.9653H5.66472L4.4105 23.4465H3.51934L2.98127 20.8254L2.82392 19.9594L2.66656 20.8254L2.12849 23.4465H1.26343L0 18.9653H0.98864Z" fill="#F2F7FE"/>
<path d="M1.08691 17.823V13.1457H2.05253V14.9294H3.86094V13.1457H4.82655V17.823H3.86094V15.7352H2.05253V17.823H1.08691Z" fill="#F2F7FE"/>
</svg>
